<?xml version="1.0" standalone="yes"?>
<svg xmlns="http://www.w3.org/2000/svg" width="502" height="124">
<path style="fill:#010101; stroke:none;" d="M0 0L0 124L502 124L502 0L0 0z"/>
<path style="fill:#014f21; stroke:none;" d="M496 2C494.982 11.9367 487.451 18.1066 479 22.3951C458.416 32.8406 434.825 38.051 425.464 62C419.453 77.3784 416.451 117.998 439 118L439 117C418.885 100.375 426.66 75.0844 446 63C438.489 70.5111 430.913 76.8426 430 88C442.06 88 453.922 88.244 465 82.6265C489.483 70.2121 513.629 28.5528 496 2z"/>
<path style="fill:#012743; stroke:none;" d="M479 22L480 23L479 22z"/>
<path style="fill:#0f039b; stroke:none;" d="M180 27L181 28L180 27z"/>
<path style="fill:#150b85; stroke:none;" d="M181 27.4398C153.895 31.7952 135.745 61.8975 143.439 88C150.384 111.563 173.846 126.18 198 122.7C203.778 121.867 208.067 119.339 213.09 116.662C261.269 90.981 233.681 18.9747 181 27.4398z"/>
<path style="fill:#0f039b; stroke:none;" d="M199 27L200 28L199 27M165 33L166 34L165 33M183 42L184 43L183 42z"/>
<path style="fill:#010101; stroke:none;" d="M205 120L205 119C183.057 119 158.531 111.184 154.326 86C150.634 63.894 172.237 39.109 195 49.9198C204.721 54.5365 211.064 65.3131 208.467 76C205.962 86.3074 193.789 93.9296 184.001 88.5826C181.862 87.414 179.941 85.8673 178.419 83.9568C177.045 82.2325 175.993 80.176 175.573 78C172.325 61.1507 200.235 60.8106 196.232 74.9954C195.629 77.1324 194.119 79.1122 193 81C207.706 73.2827 187.92 51.6686 175.558 66.1883C159.513 85.0332 191.102 103.541 206.787 88.5324C230.001 66.3186 198.072 36.1797 173 44.3596C147.925 52.5404 143.406 86.4395 159.301 104.999C171.746 119.531 187.375 120.757 205 120z"/>
<path style="fill:#0f039b; stroke:none;" d="M191 43L192 44L191 43M227 44L228 45L227 44M186 47L187 48L186 47M198 51L199 52L198 51M145 56L146 57L145 56z"/>
<path style="fill:#010101; stroke:none;" d="M449 60L450 61L449 60M447 61L446 63L447 61z"/>
<path style="fill:#0f039b; stroke:none;" d="M153 62L154 63L153 62M238 71L239 72L238 71M208 76L209 77L208 76M238 78L239 79L238 78z"/>
<path style="fill:#010101; stroke:none;" d="M185 80L186 81L185 80M187 81L187 82L193 82L187 81z"/>
<path style="fill:#0f039b; stroke:none;" d="M211 81L212 82L211 81M193 90L194 91L193 90M152 93L153 94L152 93M187 94L188 95L187 94M194 94L195 95L194 94M234 94L235 95L234 94M147 97L148 98L147 97M150 102L151 103L150 102M228 104L229 105L228 104M161 107L162 108L161 107M172 112L173 113L172 112M162 114L163 115L162 114M165 116L166 117L165 116z"/>
<path style="fill:#010101; stroke:none;" d="M206 118L206 119L209 119L206 118z"/>
</svg>
