<?xml version="1.0" standalone="yes"?>
<svg xmlns="http://www.w3.org/2000/svg" width="421" height="421">
<path style="fill:#010101; stroke:none;" d="M0 0L0 421L421 421L421 0L0 0z"/>
<path style="fill:#282d63; stroke:none;" d="M199 15L199 16L203 16L199 15z"/>
<path style="fill:#7e7ec0; stroke:none;" d="M141 374L141 332L102 332C102.015 308.945 129.352 289.743 139.431 270C145.44 258.231 141 235.124 141 222L105 222L105 209L141 209L141 159C128.677 159 116.586 160.565 105 165C105.02 134.89 115.097 104.532 137.09 83.1698C188.386 33.343 279.022 45.3192 309.564 113C317.092 129.681 320 145.802 320 164L284 159L284 220L295.039 210.318L313 209L284.988 242L284 263L284.514 292L294.92 306L317 332L299.001 330.821L284 317L284 374C353.604 374 405.444 309.145 389.346 241C386.013 226.892 379.886 213.643 371.241 202C366.784 195.998 358.114 190.026 355.607 183C353.218 176.302 356.81 166.041 356.946 159C357.212 145.208 354.509 130.193 350.562 117C332.323 56.0403 273.924 14.899 211 15C150.043 15.0978 91.7506 58.0475 75.1551 117C71.1988 131.054 69 145.387 69 160C69 166.725 72.2014 176.69 70.3071 183C68.2266 189.93 58.8243 196.16 54.4784 202C45.6568 213.855 39.2037 227.597 35.8873 242C20.3836 309.332 72.2537 374 141 374z"/>
<path style="fill:#282d63; stroke:none;" d="M222 15L222 16L227 16L222 15M192 16L193 17L192 16M232.667 16.3333L233.333 16.6667L232.667 16.3333M186 17L187 18L186 17M238.667 17.3333L239.333 17.6667L238.667 17.3333M181 18L182 19L181 18M244 18L245 19L244 18M177 19L178 20L177 19M248 19L249 20L248 19M173 20L174 21L173 20M252 20L253 21L252 20M169 21L170 22L169 21M258 22L259 23L258 22M164 23L165 24L164 23M261 23L262 24L261 23M161 24L162 25L161 24M159 25L160 26L159 25M266 25L267 26L266 25M156 26L157 27L156 26M154 27L155 28L154 27M271 27L272 28L271 27M152 28L153 29L152 28M273 28L274 29L273 28M150 29L151 30L150 29M275 29L276 30L275 29M277 30L278 31L277 30M279 31L280 32L279 31M281 32L282 33L281 32M140 34L141 35L140 34M286 35L287 36L286 35M137 36L138 37L137 36M289 37L290 38L289 37M291 38L292 39L291 38M132 39L133 40L132 39M294 40L295 41L294 40M295 41L296 42L295 41M128 42L129 43L128 42M298 43L299 44L298 43M124 45L125 46L124 45M302 46L303 47L302 46M120 48L121 49L120 48M119 49L120 50L119 49M118 50L119 51L118 50M212 51L213 52L212 51M199 52L200 53L199 52M226 52L227 53L226 52M192.667 53.3333L193.333 53.6667L192.667 53.3333M232 53L233 54L232 53M310 53L311 54L310 53M188 54L189 55L188 54M237 54L238 55L237 54M311 54L312 55L311 54M184 55L185 56L184 55M241 55L242 56L241 55M312 55L313 56L312 55M180 56L181 57L180 56M313 56L314 57L313 56M247 57L248 58L247 57M314 57L315 58L314 57M175 58L176 59L175 58M250 58L251 59L250 58M315 58L316 59L315 58M172 59L173 60L172 59M316 59L317 60L316 59M170 60L171 61L170 60M255 60L256 61L255 60M317 60L318 61L317 60M168 61L169 62L168 61M257 61L258 62L257 61M259 62L260 63L259 62M261 63L262 64L261 63M104 64L105 65L104 64M263 64L264 65L263 64M103 65L104 66L103 65M265 65L266 66L265 65M102 66L103 67L102 66M158 66L159 67L158 66M101 67L102 68L101 67M268 67L269 68L268 67M155 68L156 69L155 68M153 69L154 70L153 69M325 69L326 70L325 69M273 70L274 71L273 70M98 71L99 72L98 71M274 71L275 72L274 71M149 72L150 73L149 72M327 72L328 73L327 72M277 73L278 74L277 73M328 73L329 74L328 73M96 74L97 75L96 74M278 74L279 75L278 74M95 75L96 76L95 75M145 75L146 76L145 75M330 76L331 77L330 76M282 77L283 78L282 77M93 78L94 79L93 78M283 78L284 79L283 78M91 81L92 82L91 81M138 81L139 82L138 81M137 82L138 83L137 82M334 82L335 83L334 82M90 83L91 84L90 83M136 83L137 84L136 83M135 84L136 85L135 84M134 85L135 86L134 85M336 85L337 86L336 85M88 86L89 87L88 86M337 87L338 88L337 87M293 88L294 89L293 88M294 89L295 90L294 89M339 90L340 91L339 90M85 91L86 92L85 91M129 91L130 92L129 91M340 92L341 93L340 92M84 93L85 94L84 93M297 93L298 94L297 93M126 95L127 96L126 95M300 97L301 98L300 97M123 99L124 100L123 99M302 100L303 101L302 100M304 103L305 104L304 103M345 103L346 104L345 103M79 104L80 105L79 104M120 104L121 105L120 104M78 107L79 108L78 107M118 107L119 108L118 107M307 108L308 109L307 108M347 108L348 109L347 108M117 109L118 110L117 109M77 110L78 111L77 110M308 110L309 111L308 110M116 111L117 112L116 111M348 111L349 112L348 111M309 112L310 113L309 112M115 113L116 114L115 113M349 113L350 114L349 113M75 115L76 116L75 115M350 116L351 117L350 116M113 118L114 119L113 118M74 119L75 120L74 119M312 119L313 120L312 119M351 120L352 121L351 120M73 123L74 124L73 123M314 124L315 125L314 124M352 124L353 125L352 124M72 126L73 127L72 126M110 126L111 127L110 126M315 127L316 128L315 127M353 128L354 129L353 128M71.3333 130.667L71.6667 131.333L71.3333 130.667M109 130L110 131L109 130M316 131L317 132L316 131M354.333 133.667L354.667 134.333L354.333 133.667M317 135L318 136L317 135M70.3333 137.667L70.6667 138.333L70.3333 137.667M107.333 137.667L107.667 138.333L107.333 137.667M318.333 140.667L318.667 141.333L318.333 140.667M355 140L356 141L355 140M106.333 144.667L106.667 145.333L106.333 144.667M69 145L69 149L70 149L69 145M319.333 146.667L319.667 147.333L319.333 146.667M356 150L356 154L357 154L356 150M105 155L105 158L106 158L105 155M127 159L128 160L127 159M297.667 159.333L298.333 159.667L297.667 159.333M105 160L105 165L106 165L105 160M121 160L122 161L121 160M304 160L305 161L304 160M116 161L117 162L116 161M308.667 161.333L309.333 161.667L308.667 161.333M112 162L113 163L112 162M313 162L314 163L313 162M109 163L110 164L109 163M316 163L317 164L316 163M356 163L356 167L357 167L356 163M69.3333 171.667L69.6667 172.333L69.3333 171.667M355.333 176.667L355.667 177.333L355.333 176.667M70 179L71 180L70 179M65 189L66 190L65 189M64 190L65 191L64 190M63 191L64 192L63 191M62 192L63 193L62 192M365 195L366 196L365 195M366 196L367 197L366 196M367 197L368 198L367 197M57 198L58 199L57 198M56 199L57 200L56 199M371 202L372 203L371 202M53 203L54 204L53 203M373 205L374 206L373 205M51 206L52 207L51 206z"/>
<path style="fill:#0114a3; stroke:none;" d="M141 208L141 209L195 209L195 217C198.757 208.024 190.544 208 184 208L141 208z"/>
<path style="fill:#021ffd; stroke:none;" d="M219 208L219 332L235 332L235 276C257.178 276 271.063 301.43 284.715 317C288.604 321.436 292.67 328.081 298.015 330.821C302.963 333.358 310.581 332 316 332C308.555 315.295 289.966 298.897 278 285C272.797 278.958 268.205 271.74 261 268C279.468 251.526 299.026 229.437 313 209C307.18 209 299.149 207.56 294 210.742C273.12 223.647 261.887 262.982 235 263L235 209L219 208z"/>
<path style="fill:#0114a3; stroke:none;" d="M220 208L220 209L235 209L220 208z"/>
<path style="fill:#282d63; stroke:none;" d="M375 208L376 209L375 208M49 209L50 210L49 209z"/>
<path style="fill:#021ffd; stroke:none;" d="M105 209L105 222L172 222C168.447 231.37 160.512 239.86 154.709 248L120.579 296C112.563 307.217 102.002 317.72 102 332L194 332L194 318L124 318L175.579 246C183.803 234.491 194.998 223.685 195 209L105 209z"/>
<path style="fill:#0114a3; stroke:none;" d="M218 209L218 332L219 332L219 246C219 235.366 222.108 218.789 218 209M235 209L235 263L245 263L245 262L236 262L236 226L235 209z"/>
<path style="fill:#282d63; stroke:none;" d="M295 209L296 210L295 209M292 211L293 212L292 211M377 211L378 212L377 211M291 212L292 213L291 212M309 213L310 214L309 213M378 213L379 214L378 213M46 214L47 215L46 214M308 214L309 215L308 214M45 216L46 217L45 216M44 218L45 219L44 218z"/>
<path style="fill:#0114a3; stroke:none;" d="M194 219L195 220L194 219M193 220L194 221L193 220z"/>
<path style="fill:#282d63; stroke:none;" d="M382 220L383 221L382 220z"/>
<path style="fill:#0114a3; stroke:none;" d="M283 221L284 222L283 221z"/>
<path style="fill:#282d63; stroke:none;" d="M302 221L303 222L302 221M42 222L43 223L42 222z"/>
<path style="fill:#0114a3; stroke:none;" d="M141 222L141 223L172 223L141 222M192 222L193 223L192 222M282 222L283 223L282 222z"/>
<path style="fill:#010101; stroke:none;" d="M141 223L141 266L142 266L172 223L141 223z"/>
<path style="fill:#0114a3; stroke:none;" d="M191 223L192 224L191 223M281 223L282 224L281 223z"/>
<path style="fill:#282d63; stroke:none;" d="M383 223L384 224L383 223z"/>
<path style="fill:#0114a3; stroke:none;" d="M171 224L172 225L171 224M280 224L281 225L280 224M279 225L280 226L279 225z"/>
<path style="fill:#282d63; stroke:none;" d="M384 225L385 226L384 225z"/>
<path style="fill:#0114a3; stroke:none;" d="M189 226L190 227L189 226M278 226L279 227L278 226z"/>
<path style="fill:#282d63; stroke:none;" d="M40 227L41 228L40 227z"/>
<path style="fill:#0114a3; stroke:none;" d="M169 227L170 228L169 227M188 227L189 228L188 227M168 228L169 229L168 228z"/>
<path style="fill:#282d63; stroke:none;" d="M385 228L386 229L385 228M39 229L40 230L39 229z"/>
<path style="fill:#0114a3; stroke:none;" d="M187 229L188 230L187 229M167 230L168 231L167 230M186 230L187 231L186 230z"/>
<path style="fill:#282d63; stroke:none;" d="M294 230L295 231L294 230M386 230L387 231L386 230z"/>
<path style="fill:#0114a3; stroke:none;" d="M166 231L167 232L166 231M274 231L275 232L274 231z"/>
<path style="fill:#282d63; stroke:none;" d="M38 232L39 233L38 232z"/>
<path style="fill:#0114a3; stroke:none;" d="M273 232L274 233L273 232M184 233L185 234L184 233M272 233L273 234L272 233M164 234L165 235L164 234M183 234L184 235L183 234M271 234L272 235L271 234z"/>
<path style="fill:#282d63; stroke:none;" d="M387 234L388 235L387 234z"/>
<path style="fill:#0114a3; stroke:none;" d="M163 235L164 236L163 235M182 236L183 237L182 236M181 237L182 238L181 237z"/>
<path style="fill:#282d63; stroke:none;" d="M388 237L389 238L388 237z"/>
<path style="fill:#0114a3; stroke:none;" d="M161 238L162 239L161 238M268 238L269 239L268 238z"/>
<path style="fill:#282d63; stroke:none;" d="M287 238L288 239L287 238M36 239L37 240L36 239z"/>
<path style="fill:#0114a3; stroke:none;" d="M267 239L268 240L267 239M179 240L180 241L179 240M266 240L267 241L266 240M159 241L160 242L159 241M178 241L179 242L178 241M265 241L266 242L265 241z"/>
<path style="fill:#282d63; stroke:none;" d="M389 241L390 242L389 241z"/>
<path style="fill:#0114a3; stroke:none;" d="M158 242L159 243L158 242M264 242L265 243L264 242z"/>
<path style="fill:#282d63; stroke:none;" d="M35 243L36 244L35 243z"/>
<path style="fill:#0114a3; stroke:none;" d="M177 243L178 244L177 243M263 243L264 244L263 243M283 243L281 246L283 243M157 244L158 245L157 244M176 244L177 245L176 244z"/>
<path style="fill:#010101; stroke:none;" d="M283 244L262 267L262 268L284 291C284 277.735 288.109 256.177 283 244z"/>
<path style="fill:#0114a3; stroke:none;" d="M156 245L157 246L156 245M261 246L262 247L261 246z"/>
<path style="fill:#282d63; stroke:none;" d="M390 246L391 247L390 246z"/>
<path style="fill:#0114a3; stroke:none;" d="M174 247L175 248L174 247M260 247L261 248L260 247M154 248L155 249L154 248M173 248L174 249L173 248M259 248L260 249L259 248z"/>
<path style="fill:#282d63; stroke:none;" d="M34 249L35 250L34 249z"/>
<path style="fill:#0114a3; stroke:none;" d="M153 249L154 250L153 249M258 249L259 250L258 249M257 250L258 251L257 250M277 250L278 251L277 250M152 251L153 252L152 251M171 251L172 252L171 251M276 251L277 252L276 251M151 252L152 253L151 252M275 252L276 253L275 252z"/>
<path style="fill:#282d63; stroke:none;" d="M391 252L392 253L391 252z"/>
<path style="fill:#0114a3; stroke:none;" d="M274 253L275 254L274 253M169 254L170 255L169 254M273 254L274 255L273 254z"/>
<path style="fill:#282d63; stroke:none;" d="M33 255L33 259L34 259L33 255z"/>
<path style="fill:#0114a3; stroke:none;" d="M149 255L150 256L149 255M253 255L254 256L253 255M148 256L149 257L148 256M252 256L253 257L252 256M167 257L168 258L167 257M251 257L252 258L251 257M166 258L167 259L166 258M250 258L251 259L250 258M270 258L271 259L270 258M146 259L147 260L146 259M249 259L250 260L249 259M269 259L270 260L269 259M248 260L249 261L248 260M268 260L269 261L268 260M164 261L165 262L164 261M247 261L248 262L247 261M267 261L268 262L267 261M144 262L145 263L144 262M163 262L164 263L163 262M143 263L144 264L143 263z"/>
<path style="fill:#282d63; stroke:none;" d="M392 263L392 271L393 271L392 263z"/>
<path style="fill:#0114a3; stroke:none;" d="M162 264L163 265L162 264M142 265L143 266L142 265M161 265L162 266L161 265M263 265L264 266L263 265M141 266L142 267L141 266M262 266L263 267L262 266M261 267L262 268L261 267z"/>
<path style="fill:#282d63; stroke:none;" d="M140 268L141 269L140 268z"/>
<path style="fill:#0114a3; stroke:none;" d="M159 268L160 269L159 268M262 268L263 269L262 268M158 269L159 270L158 269M265 270L266 271L265 270M266 271L267 272L266 271M156 272L157 273L156 272M267 272L268 273L267 272z"/>
<path style="fill:#282d63; stroke:none;" d="M135 275L136 276L135 275z"/>
<path style="fill:#0114a3; stroke:none;" d="M154 275L155 276L154 275M153 276L154 277L153 276M235 276L235 332L236 332L236 294L235 276M247 276L248 277L247 276M270 276L271 277L270 276z"/>
<path style="fill:#282d63; stroke:none;" d="M33.3333 277.667L33.6667 278.333L33.3333 277.667z"/>
<path style="fill:#0114a3; stroke:none;" d="M249 277L250 278L249 277M271 277L272 278L271 277M152 278L153 279L152 278M151 279L152 280L151 279z"/>
<path style="fill:#282d63; stroke:none;" d="M391 281L392 282L391 281M130 282L131 283L130 282z"/>
<path style="fill:#0114a3; stroke:none;" d="M149 282L150 283L149 282M254 282L255 283L254 282M275 282L276 283L275 282M148 283L149 284L148 283M255 283L256 284L255 283M276 283L277 284L276 283z"/>
<path style="fill:#282d63; stroke:none;" d="M34 284L35 285L34 284z"/>
<path style="fill:#0114a3; stroke:none;" d="M256 284L257 285L256 284M277 284L278 285L277 284M147 285L148 286L147 285M257 285L258 286L257 285M146 286L147 287L146 286z"/>
<path style="fill:#282d63; stroke:none;" d="M390 287L391 288L390 287M35 289L36 290L35 289M125 289L126 290L125 289z"/>
<path style="fill:#0114a3; stroke:none;" d="M144 289L145 290L144 289M260 289L261 290L260 289M281 289L282 290L281 289M143 290L144 291L143 290M261 290L262 291L261 290M282 290L283 291L282 290M262 291L263 292L262 291M283 291L284 292L283 291z"/>
<path style="fill:#282d63; stroke:none;" d="M389 291L390 292L389 291z"/>
<path style="fill:#0114a3; stroke:none;" d="M142 292L143 293L142 292M263 292L264 293L263 292z"/>
<path style="fill:#282d63; stroke:none;" d="M36 293L37 294L36 293z"/>
<path style="fill:#0114a3; stroke:none;" d="M141 293L142 294L141 293z"/>
<path style="fill:#282d63; stroke:none;" d="M140 294L141 295L140 294M285 294L286 295L285 294z"/>
<path style="fill:#7e7ec0; stroke:none;" d="M140 295L124 318L141 318L140 295z"/>
<path style="fill:#282d63; stroke:none;" d="M388 296L389 297L388 296M37 297L38 298L37 297z"/>
<path style="fill:#0114a3; stroke:none;" d="M267 297L268 298L267 297M268 298L269 299L268 298M269 299L270 300L269 299z"/>
<path style="fill:#282d63; stroke:none;" d="M387 299L388 300L387 299M38 300L39 301L38 300z"/>
<path style="fill:#0114a3; stroke:none;" d="M270 300L271 301L270 300z"/>
<path style="fill:#282d63; stroke:none;" d="M290 300L291 301L290 300M135 301L136 302L135 301M291 301L292 302L291 301M386 302L387 303L386 302M39 303L40 304L39 303M115 303L116 304L115 303M133 304L134 305L133 304z"/>
<path style="fill:#0114a3; stroke:none;" d="M274 305L275 306L274 305z"/>
<path style="fill:#282d63; stroke:none;" d="M40 306L41 307L40 306M113 306L114 307L113 306z"/>
<path style="fill:#0114a3; stroke:none;" d="M275 306L276 307L275 306z"/>
<path style="fill:#282d63; stroke:none;" d="M295 306L296 307L295 306z"/>
<path style="fill:#0114a3; stroke:none;" d="M276 307L277 308L276 307z"/>
<path style="fill:#282d63; stroke:none;" d="M296 307L297 308L296 307M384 307L385 308L384 307M130 308L131 309L130 308z"/>
<path style="fill:#0114a3; stroke:none;" d="M277 308L278 309L277 308z"/>
<path style="fill:#282d63; stroke:none;" d="M110 310L111 311L110 310M108 313L109 314L108 313M301 313L302 314L301 313z"/>
<path style="fill:#0114a3; stroke:none;" d="M282 314L283 315L282 314z"/>
<path style="fill:#282d63; stroke:none;" d="M44 315L45 316L44 315M125 315L126 316L125 315z"/>
<path style="fill:#0114a3; stroke:none;" d="M283 315L284 316L283 315z"/>
<path style="fill:#282d63; stroke:none;" d="M284 316L285 317L284 316M380 316L381 317L380 316M45 317L46 318L45 317M105 317L106 318L105 317M285 317L286 318L285 317M379 318L380 319L379 318z"/>
<path style="fill:#0114a3; stroke:none;" d="M194 319L194 332L195 332L194 319z"/>
<path style="fill:#282d63; stroke:none;" d="M306 319L307 320L306 319M47 320L48 321L47 320M103 320L104 321L103 320M377 321L378 322L377 321M48 322L49 323L48 322M376 323L377 324L376 323M50 325L51 326L50 325M292 325L293 326L292 325M374 326L375 327L374 326M52 328L53 329L52 328M372 329L373 330L372 329M316 331L317 332L316 331M55 332L56 333L55 332M369 333L370 334L369 333M58 336L59 337L58 336M59 337L60 338L59 337M60 338L61 339L60 338M66 344L67 345L66 344M67 345L68 346L67 345M68 346L69 347L68 346M69 347L70 348L69 347M70 348L71 349L70 348M352 350L353 351L352 350M351 351L352 352L351 351M75 352L76 353L75 352M348 353L349 354L348 353M347 354L348 355L347 354M79 355L80 356L79 355M344 356L345 357L344 356M82 357L83 358L82 357M84 358L85 359L84 358M341 358L342 359L341 358M339 359L340 360L339 359M87 360L88 361L87 360M89 361L90 362L89 361M336 361L337 362L336 361M91 362L92 363L91 362M334 362L335 363L334 362M93 363L94 364L93 363M95 364L96 365L95 364M97 365L98 366L97 365M325 366L326 367L325 366M102 367L103 368L102 367M105 368L106 369L105 368M320 368L321 369L320 368M317 369L318 370L317 369M111 370L112 371L111 370M314 370L315 371L314 370M310 371L311 372L310 371M118 372L119 373L118 372M306 372L307 373L306 372M125.667 373.333L126.333 373.667L125.667 373.333M299.667 373.333L300.333 373.667L299.667 373.333M137 374L137 375L141 375L137 374M284 374L284 375L289 375L284 374z"/>
</svg>
